#N canvas 350 137 275 215 10;
#X obj 13 17 osc~ 220;
#X obj 44 111 *~;
#X obj 90 14 hsl 128 15 0 127 0 0 empty empty empty -2 -8 0 10 -262144
-1 -1 600 1;
#X obj 45 169 dac~;
#X obj 87 69 / 127;
#X connect 0 0 1 0;
#X connect 1 0 3 0;
#X connect 1 0 3 1;
#X connect 2 0 4 0;
#X connect 4 0 1 1;
